<svg width="7" height="7" viewBox="0 0 7 7" fill="none" xmlns="http://www.w3.org/2000/svg">
<path fill-rule="evenodd" clip-rule="evenodd" d="M6.62357 0.222085C6.32809 -0.0740284 5.88488 -0.0740284 5.5894 0.222085L3.42259 2.39358L1.25577 0.222085C0.960294 -0.0740284 0.517081 -0.0740284 0.221606 0.222085C-0.0738688 0.518199 -0.0738688 0.962369 0.221606 1.25848L2.38842 3.42998L0.221606 5.60148C-0.0738688 5.89759 -0.0738688 6.34176 0.221606 6.63788C0.369344 6.78594 0.566327 6.83529 0.763311 6.83529C0.960294 6.83529 1.15728 6.78594 1.30501 6.63788L3.47183 4.46638L5.63865 6.63788C5.78639 6.78594 5.98337 6.83529 6.18035 6.83529C6.37734 6.83529 6.57432 6.78594 6.72206 6.63788C7.01753 6.34176 7.01753 5.89759 6.72206 5.60148L4.55524 3.42998L6.72206 1.25848C6.91904 0.962369 6.91904 0.518199 6.62357 0.222085Z" fill="#8B83BA"/>
</svg>
