<svg width="512" height="512" viewBox="0 0 512 512" fill="none" xmlns="http://www.w3.org/2000/svg">
<g clip-path="url(#clip0_750_1352)">
<path d="M436.891 74.8669C337.072 -24.9521 174.683 -24.9521 74.864 74.8669C-24.955 174.664 -24.955 337.096 74.864 436.894C124.763 486.814 190.32 511.753 255.877 511.753C321.434 511.753 386.97 486.814 436.89 436.894C536.709 337.096 536.709 174.664 436.891 74.8669ZM398.96 185.629L249.627 334.963C245.467 339.123 240.006 341.214 234.544 341.214C229.083 341.214 223.621 339.123 219.461 334.963L134.128 249.63C125.787 241.289 125.787 227.806 134.128 219.465C142.469 211.124 155.952 211.124 164.293 219.465L234.544 289.716L368.795 155.465C377.136 147.124 390.619 147.124 398.96 155.465C407.301 163.805 407.301 177.288 398.96 185.629Z" fill="#007F00"/>
</g>
<defs>
<clipPath id="clip0_750_1352">
<rect width="511.755" height="511.755" fill="white"/>
</clipPath>
</defs>
</svg>
